<svg width="127" height="121" viewBox="0 0 127 121" fill="none" xmlns="http://www.w3.org/2000/svg">
<g clip-path="url(#clip0_525_78)">
<path d="M20.8986 92.1559C18.736 88.9327 16.6974 85.64 15.1365 82.0761C14.9583 81.6672 14.7776 81.2597 14.602 80.8585C14.4897 81.1375 14.4522 81.5258 14.2612 81.6274C14.0417 81.7444 13.6802 81.6325 13.3897 81.5734C9.8315 80.8354 7.26743 78.6947 5.23271 75.8161C3.06371 72.7484 1.46536 69.3902 0.12007 65.9008C0.0852106 65.8096 0.0671357 65.7106 0 65.4676C1.09225 66.1143 2.06571 66.6838 3.03402 67.2637C5.30113 68.6226 7.55018 70.0073 9.50099 71.8124C10.7714 72.9876 11.8494 74.3067 12.5957 75.7171C11.9075 72.5633 11.1923 69.2899 10.4745 65.9986C9.94382 66.3341 9.44676 65.9626 8.92388 65.699C5.21851 63.8296 3.35807 60.591 2.34846 56.775C1.89658 55.0651 1.65644 53.3011 1.29494 51.5654C1.12452 50.7503 0.885674 49.9493 0.697178 49.1367C0.62746 48.8346 0.61584 48.5196 0.685558 48.1571C4.74856 51.55 8.37259 55.2541 10.0432 60.0278C10.2356 56.757 10.4499 53.1417 10.6629 49.525C10.6991 49.525 10.7352 49.5263 10.7727 49.5276C10.7391 49.6253 10.7107 49.7243 10.672 49.8195C10.3453 50.6204 9.8754 50.7644 9.17176 50.2604C7.57987 49.1213 6.50183 47.6119 5.94409 45.7412C5.09585 42.8986 5.12168 39.9929 5.33341 37.077C5.44057 35.6049 5.5658 34.1328 5.68458 32.6619C5.70137 32.4549 5.7259 32.2492 5.75688 31.9548C5.87953 32.0538 5.95312 32.0885 5.98798 32.1464C7.21321 34.1829 8.51461 36.1809 9.63784 38.2727C10.9896 40.7901 11.4066 43.5273 11.1329 46.3699C11.0967 46.7467 11.1277 47.1311 11.151 47.5206C13.9758 34.251 20.4183 23.1376 30.9689 14.4707C30.9392 14.4437 30.9056 14.3936 30.8889 14.3987C29.8573 14.706 29.8418 14.7112 29.5487 13.662C29.2234 12.4985 29.4041 11.3658 29.8728 10.2781C30.9934 7.68358 32.9145 5.73448 35.0926 4.02066C36.0325 3.2801 37.0744 2.66683 38.0788 2.00855C38.3061 1.8607 38.5694 1.76813 38.9555 1.58428C38.4713 5.61105 36.882 8.98213 34.3179 11.9714C34.9648 11.5856 35.6038 11.1858 36.261 10.8155C37.6269 10.0467 39.0084 9.30484 40.3653 8.51928C40.5654 8.40357 40.7952 8.113 40.7901 7.90858C40.7526 6.2359 41.5712 5.01578 42.7822 3.98466C44.4683 2.54854 46.4759 1.73085 48.552 1.07386C49.8534 0.662439 51.1884 0.353873 52.5091 -0.000976562L52.6576 0.173877C52.1334 0.960718 51.6531 1.78099 51.0773 2.52926C49.4157 4.68664 47.5514 6.64732 45.0416 7.83015C44.245 8.20557 43.327 8.32257 42.4659 8.56299C42.1831 8.64142 41.8681 8.68128 41.6331 8.83813C40.2569 9.75354 38.9012 10.6985 37.5366 11.6306C37.4165 11.7129 37.2784 11.7682 37.2061 11.9032C41.6228 11.0778 45.6432 12.2002 49.5874 14.0439C49.2375 14.1326 48.8928 14.2445 48.5378 14.3075C44.2721 15.0673 39.9832 15.5289 35.6426 15.2139C34.9828 15.1663 34.3102 15.0622 33.684 14.8603C33.2463 14.7189 32.9623 14.7883 32.6434 15.0596C31.4169 16.101 30.1814 17.1308 28.9523 18.1684C28.858 18.2481 28.7909 18.3587 28.6643 18.5104C32.4123 17.3635 36.1345 16.9058 39.9367 17.6052C39.9586 17.6618 39.9819 17.7197 40.0038 17.7762C39.8179 17.9267 39.6552 18.1285 39.4435 18.2198C36.332 19.5646 33.2593 21.0239 30.0768 22.1771C28.4758 22.757 26.6722 22.8007 24.9525 23.0321C24.5174 23.0913 24.1908 23.1787 23.9209 23.5425C22.7629 25.1072 21.5841 26.6565 20.4635 28.2649C23.8745 26.1422 27.5321 24.7755 31.4621 24.1558C31.5021 24.2253 31.5434 24.2934 31.5835 24.3628C30.7752 25.1085 29.9787 25.8696 29.1549 26.5986C26.4695 28.9772 23.7273 31.2914 20.5913 33.0695C19.5726 33.6468 18.4455 34.0376 17.3726 34.5198C17.1867 34.6033 16.9169 34.683 16.8536 34.8335C15.9667 36.9356 15.1094 39.0505 14.3218 41.1938C17.2758 37.8715 20.8198 35.4815 24.8957 33.8576C24.9461 33.9039 24.9964 33.9502 25.0468 33.9965C24.9267 34.1726 24.8131 34.3552 24.6853 34.5249C23.5375 36.0497 22.3446 37.5424 21.2536 39.1045C20.5332 40.1369 20.0464 41.3352 19.2976 42.3432C17.5586 44.6844 15.4709 46.6747 12.9288 48.1699C12.6848 48.3139 12.4769 48.688 12.4356 48.9799C12.18 50.8223 11.9579 52.6711 11.7655 54.5212C11.6622 55.5086 11.6416 56.505 11.6493 57.5092C12.2781 53.9774 14.3322 51.2993 16.7465 48.8269C17.9407 47.6029 19.1233 46.3674 20.3111 45.137C20.386 45.191 20.4609 45.2437 20.5358 45.2977C20.3189 46.0202 20.1071 46.7454 19.8851 47.4666C18.8483 50.8416 17.8787 54.2422 16.3553 57.4449C15.3805 59.4955 14.1617 61.3791 12.3478 62.8062C11.9127 63.1482 11.7578 63.4747 11.8559 64.043C12.2613 66.4023 12.6073 68.7731 12.9778 71.1387C12.9933 71.2416 13.0359 71.3406 13.1276 71.4537C13.4284 69.0148 14.287 66.7661 15.3573 64.5856C16.4237 62.4128 17.6154 60.321 19.2834 58.2999C19.3183 58.6521 19.3506 58.827 19.3506 59.0018C19.3402 63.1829 19.1065 67.3498 18.3164 71.4614C17.9652 73.2884 17.4863 75.1012 16.5141 76.7238C16.2197 77.2149 15.8066 77.634 15.4825 78.1097C15.3689 78.2756 15.2605 78.5507 15.3211 78.7114C16.3204 81.3805 17.5676 83.9339 19.0562 86.3947C18.6327 83.9082 18.8393 81.4294 19.1724 78.975C19.5042 76.5271 19.7637 74.0238 21.171 71.8857C21.2497 71.8934 21.3285 71.9012 21.4072 71.9101C21.5351 72.544 21.6577 73.1791 21.7907 73.813C22.3433 76.4512 22.9307 79.0817 23.4458 81.7264C23.9184 84.1525 24.1521 86.6094 23.7389 89.0664C23.5917 89.9394 23.1799 90.7661 22.9126 91.6223C22.8507 91.819 22.7938 92.1237 22.8958 92.2485C24.3057 93.9674 25.7439 95.6632 27.2545 97.3166C26.1235 93.052 26.1894 88.7771 26.7833 84.4289C27.199 85.2029 27.5928 85.9897 28.0343 86.7496C29.164 88.6922 30.3221 90.6182 31.4531 92.5609C32.3955 94.1808 32.8629 95.959 33.0501 97.8039C33.2025 99.3133 33.2683 100.832 33.3884 102.345C33.4026 102.517 33.4775 102.751 33.6053 102.839C35.5199 104.136 37.4475 105.414 39.4629 106.613C36.9569 103.104 35.7936 99.1629 35.2436 95.0037C35.3237 94.9355 35.4037 94.8661 35.4838 94.798C35.6619 95.0615 35.8027 95.3637 36.0247 95.5835C38.3267 97.8592 40.6881 100.078 42.9358 102.405C44.4219 103.944 45.5257 105.765 46.1002 107.858C46.1906 108.187 46.3249 108.527 46.3133 108.856C46.2849 109.632 46.7071 109.922 47.3836 110.102C49.2298 110.59 51.0644 111.121 52.9042 111.631C52.9817 111.653 53.0707 111.634 53.3083 111.634C49.9218 109.348 47.5992 106.415 46.4101 102.51C48.6979 103.449 50.8979 104.25 53.001 105.253C54.4999 105.968 55.9279 106.873 57.2745 107.848C58.5126 108.744 59.2653 110.071 59.8127 111.496C59.9844 111.944 59.9702 112.31 59.4951 112.642H68.0188C68.0188 112.584 68.02 112.528 68.0213 112.47H66.7225C66.9975 111.157 67.5617 110.051 68.3338 109.045C69.7552 107.191 71.7396 106.135 73.8273 105.233C75.9743 104.303 78.1265 103.383 80.2762 102.461C80.3304 102.438 80.3988 102.444 80.6093 102.42C79.2459 106.315 76.7012 109.202 73.582 111.664C73.6 111.72 73.6168 111.777 73.6349 111.833C75.9278 111.205 78.2208 110.576 80.5124 109.947C80.2271 107.09 81.7893 105.078 83.4277 103.235C85.9453 100.398 88.6707 97.7435 91.3097 95.014C91.3497 94.9728 91.4155 94.9548 91.6311 94.8404C90.9443 99.2387 89.9011 103.352 87.1769 106.926C87.8548 106.548 88.5519 106.201 89.2065 105.784C90.5286 104.943 91.8235 104.059 93.1391 103.206C93.507 102.969 93.6284 102.736 93.5122 102.26C92.8576 99.582 93.5264 97.0402 94.6613 94.6617C96.0969 91.6506 97.7508 88.7411 99.3117 85.7879C99.5583 85.3212 99.8165 84.8596 100.068 84.3955C100.135 84.4019 100.203 84.4083 100.27 84.416C100.27 85.3829 100.274 86.351 100.27 87.3178C100.258 89.4354 100.275 91.5529 100.218 93.6691C100.175 95.2685 99.6668 96.7638 98.9218 98.1832C98.9851 98.2295 99.0483 98.2758 99.1103 98.322C100.918 96.2919 102.725 94.2618 104.364 92.4207C104.033 91.6223 103.74 91.0476 103.554 90.4421C102.528 87.0967 102.856 83.7565 103.621 80.4175C104.171 78.0197 104.705 75.6194 105.224 73.2151C105.342 72.6623 105.372 72.0901 105.517 71.5167C106.72 74.0212 107.449 76.6518 107.829 79.389C108.212 82.1519 108.143 84.8892 107.475 87.6226C109.444 84.6616 110.962 81.486 112.234 78.0905C111.462 78.2524 111.062 77.8128 110.752 77.2895C109.554 75.2671 108.542 73.165 108.353 70.78C108.05 66.9397 107.78 63.0968 107.501 59.2551C107.487 59.0546 107.523 58.8514 107.652 58.6213C111.002 63.323 114.313 68.0222 113.322 74.3054C115.649 70.492 116.488 52.747 114.628 48.0362C114.038 48.4759 113.557 48.0838 113.155 47.7534C112.095 46.8842 110.947 46.0665 110.086 45.0238C108.11 42.6312 106.267 40.1292 104.406 37.644C103.473 36.3956 102.621 35.0867 101.782 33.7522C106.356 35.7669 110.642 38.1415 113.266 42.6697C113.313 42.6415 113.362 42.6119 113.41 42.5836C112.951 41.2362 112.526 39.8747 112.021 38.544C111.574 37.3637 111.05 36.213 110.534 35.061C110.452 34.8785 110.242 34.656 110.064 34.629C108.015 34.3243 106.274 33.3112 104.689 32.1078C101.596 29.7601 98.6003 27.2839 95.5702 24.8552C95.4165 24.7318 95.312 24.5492 95.2371 24.2882C97.4874 24.4284 99.6022 25.0288 101.659 25.8606C103.734 26.6989 105.617 27.8637 107.424 29.2266C107.085 28.6969 106.772 28.1479 106.404 27.64C105.409 26.2695 104.387 24.9182 103.386 23.5528C103.147 23.2276 102.875 23.1324 102.458 23.1388C100.128 23.1774 97.8631 22.7223 95.7264 21.8467C92.8873 20.6832 90.1115 19.3666 87.3099 18.1105C87.1653 18.0462 87.0465 17.9267 86.9291 17.7287C88.916 17.1424 90.9262 17.2632 92.9429 17.3867C94.9724 17.5101 96.9284 17.9177 98.7733 18.8125C98.8056 18.7598 98.8379 18.7058 98.8702 18.6531C97.5997 17.5808 96.2958 16.5445 95.0731 15.4209C94.345 14.7523 93.6981 14.6044 92.7505 15.003C91.3406 15.5957 89.8004 15.5906 88.2963 15.4543C85.0441 15.1586 81.7971 14.8024 78.5487 14.4579C78.0723 14.4077 77.6024 14.283 77.1285 14.0786C81.3245 11.9084 85.7322 11.2308 90.4795 12.0536C90.3297 11.9354 90.2135 11.8389 90.0922 11.7464C88.8114 10.7718 87.5359 9.78826 86.2409 8.83427C86.0679 8.70699 85.7813 8.65428 85.5618 8.68128C84.3146 8.83042 83.1604 8.53471 82.0811 7.95743C79.0651 6.3439 76.6767 4.03737 74.7594 1.23328C74.5477 0.924719 74.4522 0.537727 74.3037 0.186734C74.3579 0.143021 74.4121 0.0980214 74.4664 0.054308C74.9905 0.209876 75.516 0.362873 76.0402 0.519727C77.725 1.02372 79.4305 1.47242 81.087 2.05612C81.9455 2.35826 82.7641 2.83397 83.5232 3.34696C84.8014 4.20965 85.5721 5.45034 85.9298 6.95331C85.993 7.21945 86.1415 7.54344 86.3545 7.68487C88.144 8.86642 89.9592 10.012 91.8016 11.1498C90.6512 9.78954 89.7436 8.28014 89.1703 6.60489C88.6036 4.9515 88.1388 3.26339 87.6301 1.59071C87.6856 1.54699 87.7398 1.50328 87.7954 1.45957C88.144 1.63185 88.5042 1.78356 88.8385 1.97898C92.0236 3.8368 94.7491 6.18447 96.6302 9.39355C97.5184 10.9081 97.9522 12.5139 97.2292 14.2406C97.1388 14.4553 96.9994 14.6494 96.8367 14.9323C102.561 19.6803 107.183 25.4389 110.731 32.0847C110.007 29.4953 110.055 26.8931 110.618 24.3255C111.097 22.1437 111.787 20.0082 112.384 17.8521C112.484 17.8521 112.584 17.8521 112.685 17.8534C112.867 18.3535 113.056 18.8511 113.229 19.3551C114.207 22.2106 115.118 25.0828 115.481 28.0952C115.725 30.1137 115.788 32.1271 114.895 34.0183C114.497 34.8618 113.936 35.6293 113.387 36.5344C112.998 36.0909 112.661 35.7052 112.366 35.3683C113.37 38.274 114.39 41.2246 115.419 44.201C115.945 39.5892 118.305 35.8299 121.111 32.2351C121.23 33.7419 121.428 35.2475 121.447 36.7556C121.476 38.958 121.491 41.1732 121.297 43.364C121.109 45.506 120.617 47.6338 118.936 49.1843C118.294 49.7757 117.447 50.1473 116.646 50.65C116.816 53.3795 116.995 56.2646 117.162 58.9286C118.328 57.1144 119.53 55.1011 120.878 53.1892C122.232 51.2684 123.953 49.6896 126.077 48.3923C126.034 48.8578 126.029 49.2473 125.959 49.6253C125.296 53.2021 124.622 56.7866 123.078 60.1114C122.507 61.3392 121.753 62.5259 120.878 63.557C119.831 64.79 118.334 65.4727 116.866 66.14C116.695 66.2184 116.551 66.4935 116.509 66.7018C116.047 68.9415 115.611 71.1863 115.157 73.4286C115.073 73.8413 114.938 74.2437 114.91 74.6924C115.016 74.5432 115.126 74.398 115.225 74.2462C116.203 72.7536 117.455 71.527 118.936 70.5447C121.403 68.9068 123.892 67.3035 126.375 65.69C126.549 65.5769 126.743 65.4946 127 65.3609C126.985 65.528 127 65.6167 126.968 65.6823C125.619 68.4066 124.342 71.1709 122.889 73.84C121.483 76.4242 119.695 78.7474 116.999 80.1424C115.845 80.7403 114.581 81.1363 113.352 81.5811C113.085 81.6775 112.752 81.5952 112.457 81.5952C110.977 84.3453 109.46 87.1636 107.953 89.9625C112.042 86.099 117.353 84.7902 122.803 83.3476C122.47 83.8272 122.233 84.1898 121.975 84.5343C119.663 87.6071 117.228 90.5655 114.082 92.8527C111.847 94.4766 109.404 95.5668 106.6 95.671C105.921 95.6967 105.233 95.59 104.555 95.5C104.351 95.473 104.166 95.2968 104.06 95.2377C102.168 97.1238 100.289 99.0279 98.3692 100.892C97.6333 101.607 96.8032 102.228 96.0182 102.893C95.5134 103.321 95.0112 103.752 94.5089 104.181C94.2843 104.339 94.0571 104.5 93.8311 104.659C93.2321 105.031 92.624 105.391 92.0339 105.776C88.8953 107.828 85.5721 109.52 82.0759 110.878C81.9597 110.923 81.8461 110.98 81.7402 111.066C84.68 110.3 87.6663 110.328 90.637 110.642C93.2179 110.914 95.7768 111.394 98.3395 111.819C99.6035 112.029 100.853 112.322 102.135 112.713C101.771 112.853 101.412 113.01 101.042 113.131C97.8528 114.164 94.6329 115.094 91.289 115.467C88.3208 115.798 85.3578 115.837 82.5071 114.727C81.1877 114.214 80.0451 113.438 79.0664 112.288C79.3647 112.097 79.6242 111.931 79.8372 111.795C76.9555 112.476 74.0261 113.168 71.1844 113.839C76.4598 115.426 81.3555 118.126 86.3984 120.789C86.2138 120.877 86.148 120.933 86.0795 120.936C81.2032 121.102 76.4159 120.594 71.8106 118.914C69.3176 118.003 67.0414 116.732 65.5024 114.45C65.4172 114.322 65.1887 114.244 65.0196 114.23C64.6787 114.202 64.3211 114.292 63.9906 114.23C62.3264 113.921 61.0973 114.542 60.0193 115.798C57.9729 118.18 55.1184 119.117 52.1941 119.834C48.3506 120.778 44.4257 121.013 40.4815 120.999C40.4247 120.999 40.3679 120.969 40.1781 120.917C40.4402 120.735 40.6067 120.585 40.8017 120.49C44.5084 118.694 48.1957 116.858 51.9385 115.14C53.1547 114.582 54.5141 114.335 55.8091 113.947C55.9485 113.905 56.0854 113.858 56.208 113.82C54.1991 113.366 52.1838 112.972 50.202 112.453C45.3708 111.187 40.8378 109.209 36.5825 106.599C30.8837 103.104 26.0073 98.7026 21.9366 93.4146C21.7287 93.1446 21.4912 92.8964 21.2678 92.6393C21.1451 92.4786 21.0225 92.3166 20.9011 92.1559H20.8986Z" fill="#033A5B"/>
<path d="M45.2741 34.6644C45.961 36.4811 46.6194 38.2194 47.2766 39.9576C49.9504 47.0263 52.6332 54.0912 55.2903 61.1663C55.675 62.1897 55.2309 63.1476 54.7829 64.0463C53.7849 66.0481 52.091 67.3389 50.0808 68.1528C45.7428 69.909 41.4268 69.7997 37.2579 67.5935C35.2748 66.5444 33.8211 64.9848 33.1807 62.7619C32.9651 62.0123 33.1019 61.3476 33.3679 60.6495C35.5498 54.9295 37.7149 49.2043 39.8865 43.4804C41.011 40.5182 42.1407 37.5572 43.2652 34.5963C43.2872 34.5384 43.2846 34.4729 43.2936 34.4047C42.612 34.0949 41.9161 33.8262 41.2667 33.4713C40.2661 32.9249 39.4695 32.1496 38.9531 31.1224C38.3734 29.9704 38.8136 28.5086 39.8762 28.0187C41.308 27.3566 42.9399 28.4649 42.9012 30.0732C42.8702 31.3281 42.9089 31.3564 44.1432 31.6765C46.4942 32.2872 48.7536 31.9388 50.9484 31.0337C52.4951 30.396 53.9863 29.622 55.5485 29.0293C57.4399 28.3106 59.3985 28.1884 61.3673 28.7837C61.4487 28.8081 61.5352 28.8248 61.6191 28.8326C61.6811 28.8377 61.7443 28.8197 61.9703 28.7927C61.9703 28.0676 61.9922 27.3283 61.9535 26.5929C61.9444 26.418 61.7508 26.2316 61.6062 26.0863C59.6877 24.1604 59.7135 21.9143 61.6682 19.9973C62.3085 19.3686 62.9153 18.7065 63.619 17.9736C64.7525 19.4252 66.4567 20.2403 66.9435 22.0904C67.2882 23.4018 67.0519 24.6335 66.1211 25.5476C65.3981 26.2573 65.2173 26.9735 65.3348 27.8811C65.3722 28.1756 65.3722 28.4738 65.3942 28.857C65.837 28.758 66.2231 28.6641 66.6117 28.587C69.3087 28.0521 71.7605 28.7978 74.1218 30.0154C76.0817 31.0259 78.1022 31.8475 80.3448 31.9594C81.539 32.0185 82.6971 31.8565 83.832 31.4631C84.3368 31.2882 84.533 31.0787 84.4504 30.5027C84.2761 29.28 84.6595 28.5278 85.5155 28.1164C86.347 27.7166 87.1332 27.7166 87.8562 28.3453C88.4643 28.875 88.7406 29.9704 88.4333 30.7714C87.8885 32.1959 86.7885 33.0933 85.4639 33.7503C84.9875 33.9856 84.4814 34.1617 83.952 34.3803C84.4878 35.8087 85.0185 37.2268 85.5491 38.6436C87.7659 44.5552 89.9826 50.4668 92.2007 56.3784C92.7262 57.7798 93.1651 59.2237 93.8106 60.5685C94.4213 61.84 94.0934 62.9522 93.5279 64.0437C92.4408 66.1445 90.6501 67.4945 88.4708 68.2929C83.9391 69.9514 79.5185 69.765 75.3587 67.1679C73.4853 65.9992 72.1904 64.3484 71.8586 62.0895C71.8211 61.8298 71.8444 61.5302 71.936 61.2859C75.0617 52.9932 78.199 44.7044 81.3337 36.4143C81.5506 35.8396 81.765 35.2623 81.9483 34.7737C80.4997 34.4999 79.0705 34.3199 77.6942 33.947C76.0404 33.4983 74.442 32.8465 72.7985 32.3553C71.2324 31.8874 69.6431 31.7459 68.0357 32.2602C66.3754 32.7912 65.7608 33.5356 65.828 35.2571C65.9597 38.6385 66.143 42.0173 66.2992 45.3974C66.409 47.772 66.5058 50.1467 66.6168 52.5214C66.7666 55.7099 66.9241 58.8971 67.0765 62.0843C67.1333 63.2607 67.2056 64.4358 67.2262 65.6135C67.234 66.0622 67.4315 66.2487 67.824 66.3824C70.9961 67.4624 73.3769 69.4937 74.9997 72.3981C75.8002 73.8304 76.296 75.3706 76.4742 77.1114C75.4904 76.9276 74.5672 76.7823 73.6557 76.5817C69.4624 75.6625 65.4665 74.1672 61.552 72.4393C59.1764 71.3901 56.7673 70.4426 54.0986 69.7663C54.9533 69.0798 55.7589 68.3148 56.6795 67.7298C57.5393 67.1834 58.5115 66.8054 59.4553 66.3991C59.8323 66.2371 60.0298 66.0712 60.0492 65.6225C60.2957 60.0169 60.5643 54.4139 60.8303 48.8096C61.0355 44.4678 61.2615 40.1273 61.4474 35.7843C61.5545 33.2836 60.3087 32.0262 57.7588 31.9118C56.0894 31.8372 54.5285 32.2885 52.9663 32.7706C51.1627 33.3273 49.3668 33.9097 47.5464 34.406C46.8544 34.595 46.1056 34.5757 45.269 34.6644H45.2741ZM93.4259 61.4158C90.2938 53.7749 87.2146 46.2639 84.1354 38.7529C84.0592 38.7684 83.983 38.7825 83.9068 38.7979C83.9068 40.1196 83.9352 41.4413 83.9017 42.7617C83.7545 48.7119 83.5944 54.662 83.4214 60.6109C83.4046 61.1779 83.5402 61.3926 84.1612 61.3888C86.8699 61.3695 89.5798 61.4029 92.2898 61.417C92.628 61.4183 92.9663 61.417 93.4259 61.417V61.4158ZM43.3634 38.8198C43.2859 38.8108 43.2084 38.8018 43.1297 38.7928C40.0789 46.2858 37.0281 53.7775 33.9747 61.2769C34.1128 61.3245 34.1542 61.3502 34.1942 61.3502C37.2489 61.3566 40.3035 61.3553 43.3582 61.372C43.8449 61.3746 43.8462 61.1123 43.8372 60.7511C43.6745 54.2198 43.517 47.6897 43.3647 41.1585C43.3466 40.3793 43.3621 39.5989 43.3621 38.8185L43.3634 38.8198ZM44.648 61.318H54.5156C51.439 53.7479 48.396 46.2588 45.3516 38.7696C45.3038 38.7825 45.2561 38.7954 45.2083 38.8082C45.0224 46.2883 44.8365 53.7698 44.648 61.318ZM72.7843 61.3245H82.6313C82.4441 53.7865 82.2582 46.2935 82.0735 38.8005C82.0283 38.7915 81.9819 38.7838 81.9367 38.7748C78.9001 46.2575 75.8635 53.7389 72.7843 61.3232V61.3245Z" fill="#033A5B"/>
<path d="M58.088 82.3179C59.8052 81.414 61.5494 81.1003 63.313 81.3446C65.1334 81.5979 66.9345 82.0414 68.72 82.494C70.7186 83.0006 72.6875 83.6421 74.7803 83.5971C75.8467 83.574 76.846 83.3194 77.7614 82.71C78.8614 81.9797 79.596 79.8172 78.3333 78.5945C78.2778 78.5405 78.2494 78.4595 78.1861 78.3515C78.7749 78.1831 79.3378 78.0584 79.8749 77.8604C81.4306 77.2857 82.7152 76.3008 83.9611 75.2286C85.0934 74.254 86.2631 73.2846 87.5412 72.5248C89.4184 71.4088 91.4712 71.6081 93.4698 72.2471C94.3077 72.5158 94.4472 73.2332 93.8068 74.0714C92.4822 75.8071 91.1988 77.5904 89.7167 79.1859C85.1915 84.0587 79.6334 87.404 73.4234 89.7041C69.1383 91.292 64.8765 91.0271 60.6431 89.4239C58.5761 88.6409 56.4807 87.935 54.4007 87.1855C51.0478 85.9769 47.7634 86.3343 44.5176 87.6007C43.761 87.8964 43.0109 88.205 42.1885 88.5342C40.4352 84.8108 38.6975 81.117 36.9648 77.4361C36.9932 77.3782 37.0036 77.3204 37.0307 77.3101C39.5212 76.3433 41.6398 74.7464 43.8333 73.2897C47.642 70.7608 51.7076 70.2285 56.0094 71.6749C58.1229 72.3846 60.1899 73.2396 62.2466 74.1036C66.4542 75.874 70.7599 77.3088 75.2709 78.0918C75.6285 78.1535 75.9823 78.2641 76.3218 78.3939C77.4257 78.8169 78.0958 79.7413 77.9886 80.6529C77.8737 81.6236 76.8809 82.4773 75.7086 82.6007C73.8972 82.7923 72.1659 82.3616 70.4294 81.9334C68.2242 81.3896 66.0243 80.7995 63.7946 80.3803C62.0723 80.055 60.3681 80.3765 58.7749 81.1389C58.3527 81.3407 57.9499 81.5901 58.0919 82.3153L58.088 82.3179Z" fill="#033A5B"/>
<path d="M93.8286 104.66C94.0546 104.501 94.2818 104.341 94.5064 104.182C96.7736 102.81 98.9426 101.176 101.589 100.63C103.873 100.158 106.213 99.9289 108.536 99.673C110.517 99.4557 112.51 99.3542 114.497 99.2012C114.517 99.259 114.536 99.3169 114.555 99.3747C114.477 99.4827 114.417 99.6113 114.318 99.6949C110.755 102.675 106.924 105.217 102.428 106.585C99.3079 107.535 96.1797 107.706 93.1263 106.261C92.9365 106.171 92.7519 106.071 92.4756 105.929C92.9662 105.469 93.3974 105.065 93.8286 104.66Z" fill="#033A5B"/>
<path d="M12.3452 99.344C12.7868 99.344 13.218 99.3183 13.6453 99.3492C15.1443 99.4572 16.6419 99.5883 18.1408 99.704C20.732 99.9046 23.3167 100.124 25.8343 100.837C28.4875 101.588 30.8011 102.932 32.8887 104.696C32.9546 104.752 33.0191 104.808 33.0798 104.867C33.9564 105.713 33.7976 106.327 32.6602 106.733C29.998 107.682 27.3462 107.554 24.7085 106.681C20.2272 105.199 16.2688 102.782 12.5931 99.8724C12.5105 99.8069 12.4408 99.7246 12.3762 99.6423C12.3543 99.614 12.3659 99.5613 12.3452 99.3453V99.344Z" fill="#033A5B"/>
<path d="M20.8986 92.1559C21.0213 92.3166 21.1439 92.4786 21.2653 92.6393C21.6255 93.2462 22.0051 93.8427 22.3408 94.4624C22.7358 95.1901 22.67 95.3624 21.8695 95.4794C19.8361 95.779 17.8788 95.4061 16.0055 94.636C11.9335 92.9608 8.90202 90.0783 6.47481 86.4706C5.87446 85.5796 5.00686 84.8674 4.26449 84.0702C4.08245 83.8761 3.90945 83.6742 3.63574 83.3682C3.99208 83.3682 4.2051 83.3245 4.39231 83.3747C7.8782 84.3106 11.3641 85.2428 14.5724 86.9669C16.7349 88.1291 18.6677 89.5588 20.2208 91.4719C20.4209 91.7188 20.6688 91.9284 20.8948 92.1546L20.8986 92.1559Z" fill="#033A5B"/>
<path d="M47.3979 112.255C46.3431 113.578 45.0585 114.431 43.5557 114.966C41.1155 115.834 38.6005 115.887 36.0507 115.649C32.508 115.32 29.2002 114.097 25.8422 113.058C25.6253 112.992 25.4264 112.864 25.0469 112.683C25.3541 112.544 25.5 112.445 25.6588 112.413C27.7194 111.998 29.7761 111.564 31.8444 111.192C34.4652 110.72 37.0951 110.286 39.7741 110.36C42.2685 110.428 44.6634 110.961 46.946 111.972C47.079 112.031 47.1965 112.128 47.3966 112.255H47.3979Z" fill="#033A5B"/>
<path d="M14.1244 18.3428C14.93 19.5153 15.3974 20.63 15.7486 21.7987C16.2921 23.6025 16.3825 25.4539 16.4161 27.3246C16.4458 28.978 16.5929 30.6558 15.9965 32.2166C15.4891 33.5422 14.7532 34.7867 14.0599 36.0351C13.8068 36.4903 13.5228 36.417 13.0954 35.8024C11.856 34.0166 11.1498 32.0482 11.1007 29.8625C11.0465 27.4223 11.7166 25.1248 12.4964 22.8517C12.996 21.3989 13.5383 19.9589 14.1231 18.3428H14.1244Z" fill="#033A5B"/>
<path d="M101.332 7.63281C102.531 9.18978 103.758 10.7288 104.925 12.3101C106.308 14.1821 107.254 16.2585 107.582 18.5753C107.817 20.23 107.645 21.8654 107.173 23.4635C106.965 24.1681 106.609 24.2581 106.044 23.7952C103.067 21.3537 101.34 18.2513 100.941 14.4032C100.732 12.3873 100.759 10.388 100.998 8.38365C101.025 8.15737 101.083 7.93495 101.128 7.70995C101.196 7.68424 101.265 7.65853 101.333 7.63281H101.332Z" fill="#033A5B"/>
<path d="M25.94 7.58301C25.8096 10.4231 25.7153 13.1359 25.5488 15.8448C25.4455 17.5188 24.951 19.1053 23.8575 20.4065C22.8698 21.5816 21.7918 22.686 20.7034 23.7724C20.1314 24.3432 19.8358 24.2378 19.6486 23.3957C18.9901 20.4296 18.8856 17.5021 20.4323 14.7263C21.8576 12.1691 23.6186 9.85996 25.6417 7.74629C25.6805 7.70515 25.745 7.68843 25.94 7.58301Z" fill="#033A5B"/>
<path d="M114.834 63.5855C114.21 62.8076 113.599 62.0195 112.958 61.2545C110.552 58.381 109.278 54.9649 108.201 51.4537C107.637 49.6152 107.092 47.7702 106.541 45.9278C106.506 45.8134 106.495 45.6913 106.597 45.4766C107.371 46.1683 108.167 46.8368 108.914 47.5568C111.231 49.7901 113.235 52.2547 114.478 55.2594C115.486 57.6957 115.773 60.2054 115.25 62.7961C115.201 63.0404 115.12 63.2782 115.054 63.5186C114.98 63.5405 114.907 63.5623 114.833 63.5842L114.834 63.5855Z" fill="#033A5B"/>
<path d="M38.4996 90.5959C36.6611 86.6849 34.8626 82.8612 33.0293 78.9617C33.986 78.5889 34.8962 78.234 35.8813 77.8496C36.2854 78.6956 36.6727 79.4966 37.0497 80.3027C38.3291 83.0348 39.5957 85.7733 40.8919 88.4964C41.1204 88.9772 41.0262 89.2189 40.5614 89.4491C39.8913 89.7808 39.251 90.1729 38.4983 90.5959H38.4996Z" fill="#033A5B"/>
</g>
<defs>
<clipPath id="clip0_525_78">
<rect width="127" height="121" fill="white"/>
</clipPath>
</defs>
</svg>
