<svg width="29" height="23" viewBox="0 0 29 23" fill="none" xmlns="http://www.w3.org/2000/svg">
<path d="M26.4512 0H2.54883C1.14516 0 0 1.17245 0 2.61241V20.0285C0 21.4636 1.14006 22.6409 2.54883 22.6409H26.4512C27.8513 22.6409 29 21.4724 29 20.0285V2.61241C29 1.17733 27.8599 0 26.4512 0ZM26.0992 1.74161L14.554 13.5748L2.90901 1.74161H26.0992ZM1.69922 19.6679V2.96474L9.8826 11.2803L1.69922 19.6679ZM2.90074 20.8993L11.0893 12.5065L13.9585 15.422C14.2907 15.7596 14.8266 15.7585 15.1574 15.4194L17.9551 12.5519L26.0993 20.8993H2.90074ZM27.3008 19.6678L19.1566 11.3204L27.3008 2.97304V19.6678Z" fill="white"/>
</svg>
