<svg width="16" height="17" viewBox="0 0 16 17" fill="none" xmlns="http://www.w3.org/2000/svg">
<path d="M13.469 9.58031C13.1198 9.21668 12.6986 9.02227 12.2521 9.02227C11.8093 9.02227 11.3845 9.21308 11.0208 9.57671L9.88315 10.7108C9.78954 10.6604 9.69593 10.6136 9.60593 10.5668C9.47632 10.502 9.35391 10.4408 9.2495 10.376C8.18382 9.69912 7.21535 8.81705 6.28648 7.67577C5.83645 7.10693 5.53402 6.62809 5.31441 6.14206C5.60963 5.87204 5.88325 5.59121 6.14967 5.32119C6.25048 5.22039 6.35128 5.11598 6.45209 5.01517C7.20815 4.25912 7.20815 3.27984 6.45209 2.52379L5.46922 1.54091C5.35761 1.42931 5.2424 1.3141 5.13439 1.19889C4.91838 0.975673 4.69156 0.745255 4.45754 0.529239C4.10832 0.183614 3.69069 0 3.25145 0C2.81222 0 2.38739 0.183614 2.02736 0.529239C2.02376 0.53284 2.02376 0.53284 2.02016 0.53644L0.796072 1.77133C0.335238 2.23217 0.0724188 2.79381 0.0148146 3.44546C-0.0715918 4.49673 0.238031 5.47601 0.475649 6.11685C1.05889 7.69017 1.93016 9.14828 3.22985 10.7108C4.80677 12.5937 6.70411 14.0806 8.87147 15.1283C9.69953 15.5208 10.8048 15.9852 12.0397 16.0644C12.1153 16.068 12.1945 16.0716 12.2665 16.0716C13.0982 16.0716 13.7966 15.7728 14.3439 15.1787C14.3475 15.1715 14.3547 15.1679 14.3583 15.1607C14.5455 14.9339 14.7615 14.7287 14.9883 14.5091C15.1431 14.3615 15.3015 14.2067 15.4564 14.0446C15.8128 13.6738 16 13.2418 16 12.799C16 12.3525 15.8092 11.9241 15.4456 11.5641L13.469 9.58031ZM14.7579 13.3714C14.7543 13.3714 14.7543 13.375 14.7579 13.3714C14.6175 13.5226 14.4735 13.6594 14.3187 13.8106C14.0847 14.0338 13.847 14.2679 13.6238 14.5307C13.2602 14.9195 12.8318 15.1031 12.2701 15.1031C12.2161 15.1031 12.1585 15.1031 12.1045 15.0995C11.0352 15.0311 10.0416 14.6135 9.2963 14.2571C7.25855 13.2706 5.46922 11.8701 3.98231 10.0951C2.75462 8.61544 1.93376 7.24734 1.39012 5.77843C1.05529 4.88196 0.932883 4.18351 0.986887 3.52466C1.02289 3.10343 1.1849 2.7542 1.48372 2.45538L2.71141 1.22769C2.88783 1.06208 3.07504 0.972072 3.25866 0.972072C3.48547 0.972072 3.66909 1.10888 3.78429 1.22409C3.78789 1.22769 3.79149 1.23129 3.79509 1.23489C4.01471 1.44011 4.22353 1.65252 4.44314 1.87934C4.55475 1.99455 4.66996 2.10976 4.78517 2.22857L5.76804 3.21144C6.14967 3.59307 6.14967 3.94589 5.76804 4.32752C5.66363 4.43193 5.56283 4.53634 5.45842 4.63714C5.156 4.94677 4.86797 5.23479 4.55475 5.51561C4.54755 5.52281 4.54035 5.52641 4.53675 5.53361C4.22713 5.84323 4.28473 6.14566 4.34954 6.35087C4.35314 6.36167 4.35674 6.37247 4.36034 6.38327C4.61596 7.00252 4.97598 7.58576 5.52322 8.28061L5.52682 8.28421C6.5205 9.50831 7.56817 10.4624 8.72386 11.1932C8.87147 11.2868 9.02268 11.3624 9.16669 11.4344C9.2963 11.4993 9.41871 11.5605 9.52312 11.6253C9.53752 11.6325 9.55192 11.6433 9.56632 11.6505C9.68873 11.7117 9.80394 11.7405 9.92275 11.7405C10.2216 11.7405 10.4088 11.5533 10.47 11.4921L11.7013 10.2608C11.8237 10.1384 12.0181 9.99074 12.2449 9.99074C12.4681 9.99074 12.6518 10.1312 12.7634 10.2536C12.767 10.2572 12.767 10.2572 12.7706 10.2608L14.7543 12.2445C15.1251 12.6117 15.1251 12.9898 14.7579 13.3714Z" fill="white"/>
</svg>
