<svg width="125" height="125" viewBox="0 0 125 125" fill="none" xmlns="http://www.w3.org/2000/svg">
<path fill-rule="evenodd" clip-rule="evenodd" d="M2 6C2 3.79086 3.79086 2 6 2H119C121.209 2 123 3.79086 123 6V16.1875C123 16.7398 123.448 17.1875 124 17.1875C124.552 17.1875 125 16.7398 125 16.1875V2C125 0.895431 124.105 0 123 0H2C0.895431 0 0 0.895431 0 2V123C0 124.105 0.895431 125 2 125H123C124.105 125 125 124.105 125 123V108.031C125 107.479 124.552 107.031 124 107.031C123.448 107.031 123 107.479 123 108.031V119C123 121.209 121.209 123 119 123H6C3.79086 123 2 121.209 2 119V6Z" fill="#B69D74"/>
</svg>
