<svg width="16" height="18" viewBox="0 0 16 18" fill="none" xmlns="http://www.w3.org/2000/svg">
<path d="M7.87367 10.593C9.37565 10.593 10.5932 9.3754 10.5932 7.87342C10.5932 6.37144 9.37565 5.15384 7.87367 5.15384C6.37169 5.15384 5.15409 6.37144 5.15409 7.87342C5.15409 9.3754 6.37169 10.593 7.87367 10.593Z" stroke="#B69D74" stroke-width="1.2" stroke-linecap="round" stroke-linejoin="round"/>
<path d="M13.0021 13.0014L9.15575 16.8478C8.81579 17.1874 8.35491 17.3781 7.87438 17.3781C7.39384 17.3781 6.93296 17.1874 6.593 16.8478L2.74571 13.0014C1.73151 11.9871 1.04084 10.6949 0.761044 9.28811C0.481246 7.88133 0.624886 6.42318 1.1738 5.09803C1.72271 3.77289 2.65225 2.64027 3.84486 1.8434C5.03747 1.04654 6.43959 0.621213 7.87393 0.621213C9.30826 0.621213 10.7104 1.04654 11.903 1.8434C13.0956 2.64027 14.0251 3.77289 14.5741 5.09803C15.123 6.42318 15.2666 7.88133 14.9868 9.28811C14.707 10.6949 14.0163 11.9871 13.0021 13.0014V13.0014Z" stroke="#B69D74" stroke-width="1.2" stroke-linecap="round" stroke-linejoin="round"/>
</svg>
