<svg width="29" height="29" viewBox="0 0 29 29" fill="none" xmlns="http://www.w3.org/2000/svg">
<g clip-path="url(#clip0_566_245)">
<path d="M14.5 0C6.49194 0 0 6.49194 0 14.5C0 21.2999 4.68176 27.006 10.9974 28.5731V18.9312H8.00748V14.5H10.9974V12.5906C10.9974 7.65542 13.231 5.3679 18.0763 5.3679C18.995 5.3679 20.5801 5.54828 21.2286 5.72808V9.74458C20.8864 9.70862 20.2919 9.69064 19.5535 9.69064C17.1761 9.69064 16.2574 10.5914 16.2574 12.9328V14.5H20.9937L20.1799 18.9312H16.2574V28.8939C23.4372 28.0268 29.0006 21.9136 29.0006 14.5C29 6.49194 22.5081 0 14.5 0Z" fill="white"/>
</g>
<defs>
<clipPath id="clip0_566_245">
<rect width="29" height="29" fill="white"/>
</clipPath>
</defs>
</svg>
