<svg width="20" height="20" viewBox="0 0 20 20" fill="none" xmlns="http://www.w3.org/2000/svg">
<path d="M20 9.97777C20.0003 9.75967 19.9517 9.54429 19.8578 9.34747C19.7638 9.15064 19.6269 8.9774 19.4572 8.84048L18.1688 7.76735L18.7588 6.23236C18.8352 6.02881 18.8657 5.81084 18.8478 5.59413C18.83 5.37742 18.7643 5.16736 18.6555 4.97907C18.5468 4.79078 18.3976 4.62894 18.2188 4.5052C18.04 4.38146 17.836 4.2989 17.6215 4.26346L15.9689 3.97809L15.7122 2.35376C15.6767 2.13918 15.5941 1.93513 15.4704 1.7563C15.3466 1.57746 15.1847 1.42829 14.9964 1.31953C14.808 1.21076 14.5979 1.14511 14.3812 1.12729C14.1644 1.10947 13.9464 1.13993 13.7428 1.21647L12.1691 1.79628L11.1347 0.518059C10.9933 0.3554 10.8185 0.224985 10.6223 0.135615C10.4261 0.0462454 10.213 0 9.99746 0C9.78187 0 9.56879 0.0462454 9.3726 0.135615C9.17641 0.224985 9.00167 0.3554 8.86017 0.518059L7.78704 1.80605L6.25244 1.21647C6.04885 1.13987 5.8308 1.10936 5.61401 1.12715C5.39721 1.14495 5.18705 1.21059 4.99867 1.31936C4.8103 1.42813 4.64838 1.57732 4.52459 1.75618C4.40079 1.93505 4.31821 2.13914 4.28277 2.35376L3.99775 4.00667L2.37415 4.26275C2.15953 4.29821 1.95544 4.3808 1.77656 4.50458C1.59768 4.62836 1.44846 4.79025 1.33964 4.97861C1.23081 5.16696 1.16509 5.3771 1.1472 5.59389C1.12931 5.81068 1.15969 6.02875 1.23617 6.23239L1.81598 7.80646L0.537081 8.84048C0.369087 8.97862 0.233792 9.15228 0.140927 9.34895C0.0480611 9.54563 -6.82457e-05 9.76044 7.26302e-08 9.97794C6.83909e-05 10.1954 0.0483325 10.4102 0.141322 10.6068C0.234311 10.8034 0.369715 10.977 0.537795 11.1151L1.82614 12.1882L1.23617 13.7231C1.15968 13.9267 1.12926 14.1447 1.14711 14.3614C1.16495 14.5781 1.23062 14.7882 1.33938 14.9765C1.44814 15.1648 1.59729 15.3266 1.7761 15.4503C1.9549 15.5741 2.15891 15.6567 2.37345 15.6921L4.02602 15.9775L4.28277 17.6018C4.3183 17.8163 4.40092 18.0203 4.52471 18.1991C4.6485 18.3779 4.81037 18.527 4.99869 18.6358C5.187 18.7445 5.39708 18.8102 5.6138 18.8281C5.83053 18.8459 6.04852 18.8155 6.2521 18.7391L7.82581 18.1593L8.86018 19.4375C8.99818 19.6056 9.17176 19.7411 9.36842 19.8341C9.56508 19.9272 9.77992 19.9754 9.99747 19.9754C10.215 19.9754 10.4299 19.9272 10.6265 19.8341C10.8232 19.7411 10.9968 19.6056 11.1348 19.4375L12.2079 18.1495L13.7426 18.7391C13.9462 18.8156 14.1642 18.8461 14.381 18.8283C14.5978 18.8105 14.8079 18.7449 14.9963 18.6361C15.1846 18.5273 15.3466 18.3781 15.4704 18.1993C15.5942 18.0205 15.6768 17.8164 15.7122 17.6018L15.9972 15.9489L17.6208 15.6928C17.8355 15.6573 18.0396 15.5747 18.2184 15.451C18.3973 15.3272 18.5465 15.1653 18.6554 14.9769C18.7642 14.7886 18.8299 14.5784 18.8478 14.3616C18.8657 14.1449 18.8353 13.9268 18.7588 13.7231L18.179 12.1491L19.4579 11.1151C19.6275 10.978 19.7641 10.8047 19.858 10.6079C19.9518 10.4111 20.0003 10.1958 20 9.97777Z" fill="#B69D74"/>
<path d="M8.65402 13.347C8.19253 13.3481 7.74322 13.199 7.37405 12.9221L5.63916 11.6208C5.48761 11.5071 5.38744 11.3378 5.36068 11.1503C5.33392 10.9627 5.38277 10.7722 5.49648 10.6206C5.6102 10.4691 5.77945 10.3689 5.96702 10.3421C6.1546 10.3154 6.34511 10.3642 6.49667 10.4779L8.2312 11.7792C8.38156 11.8904 8.5693 11.9386 8.75463 11.9138C8.93997 11.8889 9.10834 11.7928 9.22406 11.6459L13.363 6.3237C13.4206 6.24962 13.4923 6.18762 13.5739 6.14123C13.6554 6.09485 13.7454 6.06499 13.8385 6.05336C13.9317 6.04173 14.0262 6.04856 14.1167 6.07345C14.2072 6.09835 14.2919 6.14083 14.3659 6.19846C14.44 6.2561 14.502 6.32776 14.5484 6.40935C14.5948 6.49095 14.6247 6.58088 14.6363 6.67401C14.6479 6.76715 14.6411 6.86166 14.6162 6.95216C14.5913 7.04265 14.5488 7.12736 14.4912 7.20144L10.3519 12.5237C10.1502 12.781 9.89244 12.989 9.59819 13.1317C9.30395 13.2743 8.98103 13.348 8.65402 13.347Z" fill="white"/>
</svg>
