<svg width="40" height="41" viewBox="0 0 40 41" fill="none" xmlns="http://www.w3.org/2000/svg">
<path d="M31.6296 24.8151C30.8095 23.9612 29.8203 23.5046 28.7719 23.5046C27.732 23.5046 26.7344 23.9527 25.8805 24.8066L23.2088 27.4698C22.989 27.3514 22.7692 27.2415 22.5578 27.1316C22.2535 26.9794 21.966 26.8357 21.7208 26.6835C19.2183 25.0941 16.944 23.0227 14.7627 20.3426C13.7059 19.0068 12.9957 17.8823 12.4799 16.7409C13.1732 16.1068 13.8158 15.4474 14.4414 14.8133C14.6781 14.5766 14.9149 14.3314 15.1516 14.0946C16.9271 12.3192 16.9271 10.0195 15.1516 8.24407L12.8435 5.93596C12.5814 5.67387 12.3109 5.40332 12.0572 5.13278C11.5499 4.60859 11.0173 4.0675 10.4678 3.56022C9.64766 2.74858 8.66693 2.3174 7.63547 2.3174C6.60401 2.3174 5.60636 2.74858 4.76091 3.56022C4.75245 3.56868 4.75245 3.56868 4.744 3.57713L1.86944 6.47706C0.787248 7.55924 0.170063 8.87816 0.0347894 10.4084C-0.168121 12.8772 0.558974 15.1768 1.11698 16.6817C2.48662 20.3764 4.53263 23.8005 7.58474 27.4698C11.2878 31.8916 15.7434 35.3833 20.8331 37.8436C22.7776 38.7651 25.3732 39.8558 28.2731 40.0418C28.4507 40.0502 28.6367 40.0587 28.8058 40.0587C30.7588 40.0587 32.399 39.357 33.6841 37.962C33.6925 37.945 33.7094 37.9366 33.7179 37.9197C34.1575 37.387 34.6648 36.9051 35.1974 36.3894C35.561 36.0428 35.933 35.6792 36.2965 35.2988C37.1335 34.4279 37.5732 33.4134 37.5732 32.3735C37.5732 31.3251 37.1251 30.319 36.2712 29.4735L31.6296 24.8151ZM34.6563 33.7177C34.6479 33.7177 34.6479 33.7262 34.6563 33.7177C34.3266 34.0728 33.9884 34.3941 33.6249 34.7492C33.0753 35.2734 32.5173 35.8229 31.9931 36.4401C31.1392 37.3532 30.1331 37.7844 28.8142 37.7844C28.6874 37.7844 28.5521 37.7844 28.4253 37.776C25.9143 37.6153 23.5808 36.6346 21.8307 35.7976C17.0454 33.481 12.8435 30.1922 9.35175 26.0241C6.46873 22.5492 4.54109 19.3365 3.26444 15.887C2.47817 13.7818 2.19071 12.1416 2.31753 10.5944C2.40207 9.60525 2.78253 8.78516 3.48426 8.08343L6.36728 5.20041C6.78155 4.8115 7.22119 4.60014 7.65238 4.60014C8.18501 4.60014 8.6162 4.92141 8.88675 5.19196C8.8952 5.20041 8.90365 5.20887 8.91211 5.21732C9.42784 5.69923 9.9182 6.19805 10.4339 6.73069C10.696 7.00124 10.9666 7.27179 11.2371 7.55079L13.5452 9.85889C14.4414 10.7551 14.4414 11.5836 13.5452 12.4798C13.3 12.725 13.0633 12.9702 12.8181 13.2069C12.1079 13.934 11.4316 14.6104 10.696 15.2698C10.6791 15.2867 10.6622 15.2952 10.6538 15.3121C9.92666 16.0392 10.0619 16.7494 10.2141 17.2313C10.2226 17.2567 10.231 17.282 10.2395 17.3074C10.8398 18.7616 11.6852 20.1312 12.9703 21.763L12.9788 21.7714C15.3122 24.646 17.7725 26.8864 20.4864 28.6027C20.8331 28.8225 21.1882 29.0001 21.5264 29.1692C21.8307 29.3214 22.1182 29.4651 22.3634 29.6173C22.3972 29.6342 22.431 29.6595 22.4648 29.6765C22.7523 29.8202 23.0228 29.8878 23.3018 29.8878C24.0036 29.8878 24.4432 29.4482 24.5869 29.3045L27.4784 26.413C27.7658 26.1255 28.2224 25.7789 28.755 25.7789C29.2792 25.7789 29.7104 26.1086 29.9725 26.3961C29.9809 26.4045 29.9809 26.4045 29.9894 26.413L34.6479 31.0715C35.5187 31.9338 35.5187 32.8216 34.6563 33.7177Z" fill="white"/>
<path d="M21.6193 9.52889C23.8344 9.9009 25.8466 10.9493 27.453 12.5556C29.0593 14.162 30.0993 16.1742 30.4797 18.3893C30.5727 18.9473 31.0546 19.3362 31.6042 19.3362C31.6718 19.3362 31.731 19.3278 31.7986 19.3193C32.4243 19.2179 32.8385 18.626 32.7371 18.0004C32.2805 15.3203 31.0124 12.8769 29.0763 10.9408C27.1402 9.00471 24.6968 7.73652 22.0167 7.27997C21.391 7.17852 20.8077 7.59279 20.6978 8.20998C20.5878 8.82716 20.9937 9.42744 21.6193 9.52889Z" fill="white"/>
<path d="M39.9827 17.6706C39.2303 13.2573 37.1504 9.24136 33.9546 6.04552C30.7588 2.84969 26.7428 0.769859 22.3295 0.0174008C21.7123 -0.0925089 21.129 0.330221 21.0191 0.947406C20.9176 1.57305 21.3319 2.15641 21.9575 2.26632C25.8974 2.93423 29.4906 4.8027 32.3482 7.6519C35.2059 10.5095 37.0659 14.1028 37.7338 18.0426C37.8268 18.6006 38.3087 18.9895 38.8583 18.9895C38.9259 18.9895 38.9851 18.981 39.0527 18.9726C39.6699 18.8796 40.0926 18.2878 39.9827 17.6706Z" fill="white"/>
</svg>
