<svg width="70" height="61" viewBox="0 0 70 61" fill="none" xmlns="http://www.w3.org/2000/svg">
<g clip-path="url(#clip0_524_39)">
<path d="M47.8701 28.0001C47.8301 27.4201 47.4701 27.1501 46.9001 27.1501H45.3301C44.2401 27.1501 44.2601 27.1401 43.8201 26.1701C43.6701 25.8301 43.7101 25.6101 43.9801 25.3601C44.5001 24.8701 45.0001 24.3601 45.4901 23.8401C45.9701 23.3501 45.9701 22.8601 45.4901 22.3601C44.5901 21.4401 43.6701 20.5201 42.7501 19.6201C42.2501 19.1301 41.7701 19.1401 41.2701 19.6201C40.7501 20.1201 40.2501 20.6301 39.7501 21.1401C39.5501 21.3401 39.3401 21.5301 39.0501 21.3201C38.6701 21.0401 37.9501 21.1601 37.9701 20.4001C37.9901 19.6601 37.9701 18.9301 37.9701 18.1901C37.9701 17.6701 37.7301 17.2901 37.2201 17.2601C35.7501 17.1501 34.2801 17.1401 32.8201 17.2601C32.2801 17.3101 32.0201 17.6901 32.0201 18.2301V19.8001C32.0201 20.8801 32.0101 20.8601 31.0301 21.3001C30.7201 21.4401 30.5001 21.4101 30.2701 21.1601C29.7501 20.6201 29.2101 20.0901 28.6701 19.5601C28.2601 19.1701 27.7701 19.1301 27.3701 19.5201C26.3701 20.4801 25.3801 21.4601 24.4301 22.4701C24.0101 22.9201 24.0601 23.3101 24.4801 23.7501C24.9901 24.3001 25.4901 24.8701 26.0401 25.3801C26.4901 25.8001 26.1601 26.1501 26.0401 26.5301C25.9301 26.8901 25.7801 27.1601 25.3201 27.1501C24.6101 27.1201 23.8901 27.1301 23.1801 27.1401C22.4401 27.1601 22.1601 27.4301 22.1501 28.1701C22.1401 29.4601 22.1401 30.7601 22.1501 32.0501C22.1601 32.7601 22.4801 33.0801 23.1901 33.0901C23.9001 33.1001 24.6201 33.1201 25.3301 33.0901C26.0301 33.0501 25.9501 33.6601 26.1701 34.0201C26.3701 34.3201 26.3201 34.5801 26.0501 34.8401C25.5101 35.3601 24.9701 35.8901 24.4601 36.4401C24.0301 36.9001 24.0401 37.3301 24.4701 37.7701C25.4001 38.7201 26.3401 39.6601 27.3001 40.5901C27.8101 41.0901 28.2401 41.0801 28.7601 40.5801C29.2501 40.1201 29.7201 39.6301 30.2001 39.1501C30.4201 38.9301 30.6201 38.6801 30.9901 38.9101C31.4001 39.1801 32.0901 39.1201 32.0301 39.9301C31.9701 40.6201 32.0001 41.3201 32.0201 42.0201C32.0401 42.7001 32.3101 42.9601 32.9901 42.9701C33.6701 42.9801 34.3401 42.9701 35.0201 42.9701C35.7001 42.9701 36.3701 42.9801 37.0501 42.9601C37.6901 42.9501 37.9501 42.6901 37.9701 42.0301C37.9801 41.3001 37.9901 40.5601 37.9701 39.8301C37.9301 39.0701 38.6201 39.2001 38.9901 38.9401C39.3001 38.7301 39.5201 38.8801 39.7501 39.1101C40.2601 39.6401 40.7701 40.1601 41.3101 40.6601C41.7501 41.0701 42.2401 41.1001 42.6601 40.7001C43.6501 39.7501 44.6201 38.7801 45.5701 37.7901C45.9901 37.3501 45.9401 36.8601 45.5101 36.4001C45.1301 36.0101 44.7401 35.6301 44.3601 35.2501C43.6301 34.5201 43.6501 34.5201 44.0201 33.6001C44.1701 33.2401 44.3701 33.0801 44.7601 33.0901C45.4701 33.1101 46.1901 33.1001 46.9101 33.0901C47.4801 33.0901 47.8401 32.8101 47.8701 32.2301C47.9501 30.8201 47.9501 29.4101 47.8701 28.0001ZM46.1501 30.4401C46.1501 31.0401 45.8567 31.3401 45.2701 31.3401C44.7301 31.3401 44.1901 31.3501 43.6401 31.3401C43.1301 31.3401 42.8001 31.5601 42.6601 32.0601C42.4701 32.7501 42.1801 33.4101 41.8301 34.0301C41.5201 34.5801 41.6001 35.0601 42.0601 35.5001C42.4901 35.9101 42.9001 36.3501 43.3301 36.7601C43.5901 37.0101 43.6301 37.2301 43.3401 37.4901C42.9901 37.8101 42.6501 38.1601 42.3201 38.5101C42.0501 38.7901 41.8301 38.7501 41.5801 38.4901C41.1601 38.0401 40.7001 37.6201 40.2801 37.1701C39.8701 36.7401 39.4201 36.6601 38.9201 36.9601C38.2801 37.3301 37.6001 37.6001 36.9001 37.8101C36.4201 37.9501 36.2101 38.2701 36.2101 38.7601C36.2101 39.3901 36.1901 40.0301 36.2101 40.6701C36.2301 41.1101 36.0801 41.3201 35.6201 41.2901C35.1701 41.2601 34.7301 41.2701 34.2801 41.2901C33.9101 41.3001 33.7601 41.1301 33.7701 40.7601C33.7801 40.1101 33.7601 39.4501 33.7701 38.7901C33.7801 38.2501 33.5401 37.9201 33.0101 37.7801C32.3501 37.6101 31.7501 37.3001 31.1501 36.9901C30.4301 36.6301 30.0401 36.7101 29.5101 37.3101C29.1401 37.7401 28.7501 38.1401 28.3301 38.5101C28.0701 38.7201 27.8701 38.7501 27.6401 38.4901C27.4401 38.2801 27.2201 38.0901 27.0201 37.8801C26.2001 37.0201 26.2201 37.2701 27.0101 36.3501C27.3001 36.0101 27.6601 35.7501 27.9801 35.4401C28.3901 35.0301 28.4501 34.5501 28.1501 34.0601C27.7901 33.4601 27.5401 32.8201 27.3401 32.1501C27.1801 31.6101 26.8301 31.3501 26.2801 31.3501C25.6801 31.3401 25.0801 31.3201 24.4801 31.3501C23.9601 31.3801 23.7901 31.1701 23.8201 30.6701C23.8501 30.2501 23.8401 29.8201 23.8301 29.3901C23.8201 29.0501 23.9701 28.9001 24.3101 28.9101C24.9901 28.9201 25.6701 28.9001 26.3401 28.9101C26.8601 28.9101 27.1901 28.6901 27.3201 28.1801C27.5001 27.5001 27.8201 26.8801 28.1301 26.2601C28.4801 25.5801 28.4101 25.1801 27.8301 24.6701C27.4101 24.3001 27.0001 23.9201 26.6201 23.5001C26.3901 23.2401 26.3601 23.0101 26.6401 22.7601C26.9401 22.4901 27.2401 22.2101 27.5001 21.9001C27.8701 21.4401 28.1901 21.5201 28.5401 21.9101C28.8601 22.2601 29.2001 22.6101 29.5301 22.9601C30.0601 23.5301 30.4401 23.6101 31.1201 23.2601C31.7501 22.9501 32.3701 22.6401 33.0401 22.4601C33.5501 22.3201 33.7801 21.9901 33.7701 21.4801C33.7701 20.8201 33.7901 20.1601 33.7701 19.5101C33.7601 19.1101 33.9201 18.9401 34.3201 18.9601C34.7601 18.9701 35.2101 18.9801 35.6501 18.9501C36.0901 18.9301 36.2301 19.1401 36.2201 19.5501C36.2001 20.1701 36.2201 20.7901 36.2101 21.4001C36.2101 21.9801 36.4601 22.3501 37.0401 22.4901C37.7001 22.6601 38.3101 22.9601 38.9001 23.2901C39.4501 23.5901 39.9301 23.5101 40.3701 23.0601C40.7701 22.6401 41.1601 22.2101 41.5801 21.8101C41.9301 21.4901 42.1501 21.5301 42.4401 21.8501C42.6801 22.1301 42.9401 22.4001 43.2201 22.6301C43.7001 23.0101 43.6301 23.3301 43.2001 23.7001C42.7801 24.0701 42.4101 24.4901 42.0001 24.8801C41.5901 25.2801 41.5501 25.7201 41.8301 26.1901C42.1501 26.7301 42.3801 27.3001 42.5701 27.8901C42.8701 28.7901 43.0301 28.9101 43.9901 28.9101H44.6301C45.6501 28.9101 46.1567 29.4201 46.1501 30.4401Z" fill="white"/>
<path d="M34.97 25.2998C32.35 25.2998 30.17 27.4798 30.17 30.0998C30.16 32.7698 32.32 34.9398 34.97 34.9498C37.63 34.9498 39.82 32.7798 39.82 30.1198C39.82 27.4598 37.63 25.2898 34.97 25.2998ZM34.93 33.1798C33.29 33.1598 31.93 31.7698 31.93 30.1198C31.93 28.4698 33.32 27.0598 35 27.0598C36.68 27.0698 38.05 28.4498 38.05 30.1298C38.05 31.8098 36.66 33.1998 34.93 33.1798Z" fill="white"/>
<path d="M61.92 46.7598C61.55 46.7598 61.22 46.9798 61.08 47.3098C61.06 47.3598 61.04 47.4198 61.03 47.4798C59.84 51.7598 56.3 54.9198 51.76 55.4498C48.79 55.7898 45.78 55.5098 42.78 55.5598C42.49 55.5598 42.4 55.3998 42.34 55.1398C41.95 53.5198 40.94 52.6298 39.33 52.5898C37.32 52.5398 35.31 52.5298 33.3 52.5998C31.4 52.6498 30.28 53.8898 30.27 55.7698C30.27 56.2798 30.27 56.7798 30.28 57.2798C30.29 58.9998 31.52 60.2298 33.24 60.2398C35.27 60.2498 37.3 60.2398 39.33 60.2398C40.87 60.2398 42 59.3498 42.32 57.8498C42.41 57.4198 42.61 57.3098 42.99 57.3298C43.28 57.3498 43.57 57.3398 43.86 57.3298C46.5 57.2798 49.16 57.4798 51.8 57.2298C57.03 56.7298 61.32 53.0398 62.72 48.0798C62.76 47.9698 62.79 47.8498 62.82 47.7398C62.82 47.7398 62.83 47.6798 62.83 47.6598C62.83 47.1598 62.43 46.7598 61.92 46.7598ZM40.57 57.2098C40.52 58.0098 40.06 58.4598 39.26 58.4598C37.27 58.4798 35.28 58.4798 33.29 58.4598C32.48 58.4598 32.06 58.0098 32.04 57.1898C32.02 56.6598 32.02 56.1398 32.04 55.6198C32.06 54.8398 32.46 54.4398 33.23 54.4298C34.25 54.4298 35.28 54.4298 36.3 54.4298C37.32 54.4298 38.27 54.4298 39.26 54.4298C40.1 54.4398 40.55 54.8798 40.58 55.7098C40.6 56.2098 40.61 56.7098 40.57 57.2098Z" fill="white"/>
<path d="M62.8202 47.7402C62.8202 47.8602 62.7802 47.9802 62.7202 48.0802C62.7602 47.9702 62.7902 47.8502 62.8202 47.7402Z" fill="white"/>
<path d="M69.9802 35.7996C69.9802 33.9096 69.1302 32.6196 67.5202 32.0596C67.0402 31.9196 65.0102 31.8396 63.7902 31.7996C63.7602 31.7996 63.7202 31.7996 63.6802 31.7996C63.4002 31.7996 63.1302 31.7796 62.8502 31.7796C62.4502 31.7796 62.0502 31.7896 61.6502 31.7896C61.0202 31.7896 60.3802 31.7696 59.7402 31.7896C59.2402 31.8096 59.0502 31.6396 59.0702 31.1196C59.1102 28.7796 58.7202 26.4996 58.0502 24.2696C57.0802 21.0496 55.4702 18.1596 53.2802 15.5996C50.7902 12.6896 47.7902 10.4996 44.2802 9.02965C40.5802 7.47965 36.7202 6.88965 32.7102 7.27965C27.9002 7.75965 23.6002 9.48965 19.8702 12.5496C15.1502 16.4196 12.2502 21.3596 11.2502 27.3996C11.1502 27.9796 11.0802 28.5596 11.0202 29.1396C11.0002 29.3796 10.9802 29.6096 10.9702 29.8496C11.0702 30.1696 11.3302 30.4196 11.6502 30.4896C11.7202 30.5096 11.7902 30.5196 11.8702 30.5196C11.9502 30.5196 12.0202 30.5096 12.0902 30.4896C12.4302 30.4096 12.7002 30.1596 12.7802 29.8296C12.7802 29.6696 12.7902 29.5096 12.8002 29.3496C12.9502 26.5196 13.7602 23.8496 15.0302 21.3296C17.4102 16.6496 20.9802 13.1396 25.7902 10.9496C30.9602 8.59965 36.2902 8.30965 41.6802 9.95965C46.0602 11.2996 49.7002 13.8296 52.5302 17.4596C55.5202 21.2696 57.1402 25.5996 57.3002 30.4496C57.3602 31.9796 57.4502 31.7596 55.9802 31.7796H55.6302C54.9602 31.8096 54.6402 32.1096 54.6302 32.7896C54.5902 36.6096 54.5602 40.4396 54.5402 44.2696C54.5402 45.1596 54.8802 45.4796 55.7802 45.4796C57.2402 45.4896 58.7002 45.4996 60.1502 45.4796C60.3602 45.4896 60.5602 45.4796 60.7702 45.4796C60.8802 45.4796 60.9802 45.4896 61.0602 45.4996L63.4502 45.5296H63.4602L64.8602 45.5496H65.4102C65.5802 45.5696 65.7602 45.5696 65.9302 45.5696C68.5902 45.5796 70.1002 43.6896 70.0002 41.4696C69.9102 39.5796 69.9802 37.6796 69.9802 35.7796V35.7996ZM68.2102 41.4896C68.2002 43.0096 67.4802 43.7496 65.9802 43.7496C63.0202 43.7496 60.0702 43.7296 57.1102 43.7496C56.5702 43.7496 56.3702 43.5796 56.3702 43.0196C56.4002 40.0996 56.4002 37.1796 56.3702 34.2596C56.3702 33.6896 56.5802 33.5396 57.1202 33.5496C58.6002 33.5696 60.0902 33.5496 61.5802 33.5496C63.0102 33.5596 64.4402 33.5496 65.8702 33.5596C67.4902 33.5696 68.2002 34.2896 68.2002 35.9096V41.4796L68.2102 41.4896Z" fill="white"/>
<path d="M66.08 29.7701C66.03 28.5201 65.88 27.2701 65.69 26.0401C64.71 20.0401 62.15 14.7801 58.09 10.2801C54.17 5.94009 49.38 2.92009 43.74 1.26009C39.78 0.100095 35.74 -0.249905 31.64 0.180095C27.86 0.580095 24.26 1.66009 20.87 3.41009C17.35 5.22009 14.27 7.6101 11.65 10.6001C8.68 14.0001 6.5 17.8401 5.22 22.1601C4.37 25.0301 3.88 27.9601 3.95 30.9701C3.96 31.4601 3.83 31.6601 3.28 31.7101C1.48 31.8501 0.03 33.4601 0.01 35.2601C0 37.3701 0 39.4801 0 41.5801C0 43.7901 1.59 45.3701 3.8 45.3801C5.51 45.3901 7.21 45.3901 8.91 45.3901C10.71 45.3901 12.5 45.4001 14.3 45.3901C15.05 45.3801 15.31 45.1201 15.35 44.3901C15.37 43.8801 15.42 43.3801 15.42 42.8801C15.42 40.3701 15.42 37.8601 15.42 35.3401C15.42 34.5101 15.44 33.6801 15.42 32.8501C15.4 32.0101 15.08 31.7001 14.25 31.6901C14.07 31.6801 13.88 31.6801 13.7 31.6801C13.51 31.6801 13.33 31.6801 13.15 31.6901C13.12 31.6901 13.1 31.6901 13.07 31.6801H10.5H10.47C10.42 31.6801 10.37 31.6801 10.32 31.6801C8.98 31.6801 7.65 31.6601 6.32 31.6801C5.84 31.6901 5.67 31.5101 5.67 31.0401C5.67 28.2401 6.04 25.4901 6.85 22.8101C8.24 18.1901 10.59 14.1401 13.97 10.6901C18.85 5.72009 24.71 2.81009 31.61 1.99009C37.37 1.30009 42.85 2.2901 48.05 4.8201C50.44 5.9901 52.6 7.51009 54.59 9.29009C57.84 12.2201 60.35 15.7001 62.04 19.7201C63.42 23.0201 64.23 26.4401 64.29 30.0101C64.29 30.5201 64.7 30.9301 65.2 30.9301C65.25 30.9301 65.31 30.9301 65.36 30.9301C65.73 30.8601 66.02 30.5801 66.1 30.2201C66.1 30.0601 66.1 29.9201 66.08 29.7801V29.7701ZM12.91 33.4401C13.44 33.4401 13.61 33.6201 13.61 34.1501C13.59 37.0701 13.59 39.9901 13.61 42.9101C13.61 43.4601 13.42 43.6501 12.87 43.6401C11.36 43.6101 9.85 43.6301 8.35 43.6301C6.9 43.6201 5.45 43.6301 4 43.6201C2.47 43.6201 1.77 42.8901 1.77 41.3601C1.76 39.4401 1.76 37.5301 1.77 35.6201C1.77 34.2201 2.52 33.4501 3.92 33.4501C6.91 33.4401 9.91 33.4601 12.91 33.4401Z" fill="white"/>
</g>
<defs>
<clipPath id="clip0_524_39">
<rect width="70" height="60.24" fill="white"/>
</clipPath>
</defs>
</svg>
