<svg width="34" height="34" viewBox="0 0 34 34" fill="none" xmlns="http://www.w3.org/2000/svg">
<path d="M20.9542 18.6365C20.6754 18.3461 20.339 18.1909 19.9826 18.1909C19.629 18.1909 19.2898 18.3433 18.9995 18.6336L18.0911 19.5391C18.0164 19.4988 17.9417 19.4615 17.8698 19.4241C17.7663 19.3723 17.6686 19.3235 17.5852 19.2717C16.7344 18.7313 15.9611 18.0271 15.2195 17.1158C14.8602 16.6617 14.6187 16.2793 14.4434 15.8913C14.6791 15.6757 14.8975 15.4515 15.1102 15.2359C15.1907 15.1554 15.2712 15.072 15.3517 14.9915C15.9554 14.3879 15.9554 13.606 15.3517 13.0024L14.567 12.2176C14.4778 12.1285 14.3859 12.0365 14.2996 11.9445C14.1272 11.7663 13.9461 11.5823 13.7592 11.4099C13.4804 11.1339 13.1469 10.9873 12.7962 10.9873C12.4455 10.9873 12.1063 11.1339 11.8189 11.4099C11.816 11.4127 11.816 11.4127 11.8131 11.4156L10.8358 12.4016C10.4679 12.7695 10.258 13.218 10.212 13.7382C10.143 14.5776 10.3902 15.3595 10.58 15.8712C11.0456 17.1273 11.7413 18.2915 12.779 19.5391C14.038 21.0425 15.5529 22.2296 17.2834 23.0661C17.9445 23.3795 18.827 23.7503 19.813 23.8135C19.8734 23.8164 19.9366 23.8193 19.9941 23.8193C20.6581 23.8193 21.2158 23.5807 21.6527 23.1064C21.6556 23.1006 21.6613 23.0978 21.6642 23.092C21.8137 22.9109 21.9862 22.7471 22.1672 22.5717C22.2909 22.4539 22.4173 22.3303 22.5409 22.2009C22.8255 21.9048 22.975 21.5599 22.975 21.2063C22.975 20.8499 22.8226 20.5078 22.5323 20.2203L20.9542 18.6365ZM21.9833 21.6634C21.9804 21.6634 21.9804 21.6662 21.9833 21.6634C21.8712 21.7841 21.7562 21.8933 21.6326 22.0141C21.4457 22.1923 21.256 22.3791 21.0778 22.589C20.7875 22.8994 20.4454 23.046 19.997 23.046C19.9539 23.046 19.9079 23.046 19.8647 23.0431C19.011 22.9885 18.2176 22.6551 17.6226 22.3705C15.9956 21.5829 14.567 20.4647 13.3798 19.0475C12.3996 17.8661 11.7442 16.7738 11.3101 15.6009C11.0428 14.8852 10.945 14.3275 10.9882 13.8015C11.0169 13.4652 11.1463 13.1863 11.3848 12.9477L12.3651 11.9675C12.5059 11.8353 12.6554 11.7634 12.802 11.7634C12.9831 11.7634 13.1297 11.8727 13.2217 11.9646C13.2245 11.9675 13.2274 11.9704 13.2303 11.9733C13.4056 12.1371 13.5724 12.3067 13.7477 12.4878C13.8368 12.5798 13.9288 12.6718 14.0208 12.7666L14.8055 13.5514C15.1102 13.8561 15.1102 14.1378 14.8055 14.4425C14.7222 14.5259 14.6417 14.6092 14.5583 14.6897C14.3169 14.9369 14.0869 15.1669 13.8368 15.3911C13.8311 15.3969 13.8253 15.3997 13.8225 15.4055C13.5752 15.6527 13.6212 15.8942 13.673 16.058C13.6758 16.0666 13.6787 16.0752 13.6816 16.0839C13.8857 16.5783 14.1731 17.044 14.6101 17.5988L14.6129 17.6016C15.4063 18.579 16.2428 19.3407 17.1655 19.9243C17.2834 19.999 17.4041 20.0594 17.5191 20.1169C17.6226 20.1686 17.7203 20.2175 17.8037 20.2692C17.8152 20.275 17.8267 20.2836 17.8382 20.2893C17.9359 20.3382 18.0279 20.3612 18.1228 20.3612C18.3614 20.3612 18.5108 20.2117 18.5597 20.1628L19.5428 19.1798C19.6405 19.082 19.7958 18.9642 19.9768 18.9642C20.1551 18.9642 20.3017 19.0763 20.3908 19.174C20.3937 19.1769 20.3937 19.1769 20.3965 19.1798L21.9804 20.7636C22.2765 21.0568 22.2765 21.3587 21.9833 21.6634Z" fill="white"/>
<path d="M17.5509 13.4397C18.304 13.5662 18.9881 13.9227 19.5343 14.4688C20.0805 15.015 20.434 15.6991 20.5634 16.4523C20.595 16.642 20.7589 16.7742 20.9457 16.7742C20.9687 16.7742 20.9888 16.7713 21.0118 16.7685C21.2245 16.734 21.3654 16.5328 21.3309 16.32C21.1757 15.4088 20.7445 14.5781 20.0862 13.9198C19.4279 13.2615 18.5972 12.8303 17.686 12.6751C17.4733 12.6406 17.2749 12.7815 17.2375 12.9913C17.2002 13.2012 17.3382 13.4053 17.5509 13.4397Z" fill="white"/>
<path d="M23.7946 16.2082C23.5388 14.7076 22.8316 13.3422 21.745 12.2557C20.6585 11.1691 19.2931 10.4619 17.7925 10.2061C17.5827 10.1687 17.3844 10.3125 17.347 10.5223C17.3125 10.735 17.4533 10.9334 17.6661 10.9707C19.0056 11.1978 20.2273 11.8331 21.1989 12.8018C22.1705 13.7734 22.8029 14.9951 23.03 16.3346C23.0616 16.5244 23.2254 16.6566 23.4123 16.6566C23.4353 16.6566 23.4554 16.6537 23.4784 16.6508C23.6882 16.6192 23.832 16.418 23.7946 16.2082Z" fill="white"/>
<rect x="0.75" y="0.75" width="32.5" height="32.5" rx="3.25" stroke="white" stroke-opacity="0.2" stroke-width="1.5"/>
</svg>
