<svg width="60" height="64" viewBox="0 0 60 64" fill="none" xmlns="http://www.w3.org/2000/svg">
<path d="M5.71161 33.9554C4.0138 34.6866 2.56933 35.8891 1.55493 37.4158C0.54052 38.9425 0.000173869 40.7271 0 42.5514V62.0757C0 62.3456 0.108915 62.6044 0.302786 62.7953C0.496656 62.9861 0.759601 63.0933 1.03378 63.0933H46.5199C46.7941 63.0933 47.057 62.9861 47.2509 62.7953C47.4447 62.6044 47.5537 62.3456 47.5537 62.0757V60.0404C49.3048 60.0461 51.0373 59.6868 52.6372 58.9861C54.2371 58.2855 55.6682 57.2593 56.8364 55.9751C58.0045 54.6909 58.8833 53.1779 59.4148 51.5354C59.9463 49.893 60.1185 48.1583 59.9202 46.4456C59.7218 44.733 59.1574 43.081 58.2639 41.5985C57.3705 40.1159 56.1683 38.8364 54.7365 37.844C53.3047 36.8516 51.6757 36.1689 49.9566 35.8407C48.2375 35.5125 46.4673 35.5462 44.7625 35.9398C43.9221 35.1047 42.9306 34.4317 41.8389 33.9554L29.9795 28.8459V26.142C31.1371 25.1204 32.0167 23.8298 32.5381 22.388H33.0808C34.0458 22.389 34.9807 22.0573 35.7231 21.4505C36.4655 20.8436 36.9685 20 37.1448 19.066C37.3211 18.1321 37.1595 17.1669 36.6881 16.338C36.2167 15.5092 35.4652 14.869 34.5643 14.5288C34.9527 13.374 35.15 12.1652 35.1484 10.9487V8.14108C35.1453 5.98284 34.2731 3.91384 32.7227 2.38774C31.1724 0.86163 29.0706 0.00296147 26.8782 0H19.6417C18.7066 0.000688957 17.7993 0.312802 17.0673 0.885572C16.3353 1.45834 15.8217 2.25807 15.61 3.15467C14.6992 3.36302 13.8868 3.86861 13.3049 4.58919C12.7231 5.30977 12.406 6.20295 12.4053 7.12344V9.15871C12.4078 10.9535 12.7138 12.7353 13.3109 14.4311C12.3569 14.7045 11.5352 15.3078 10.997 16.13C10.4588 16.9522 10.2404 17.9381 10.3817 18.9062C10.5231 19.8744 11.0149 20.7597 11.7665 21.3994C12.5182 22.0391 13.4792 22.3902 14.4729 22.388H15.0156C15.5369 23.8298 16.4165 25.1204 17.5742 26.142V28.8459L5.71161 33.9554ZM21.9698 32.6844L18.8685 35.1267L16.5662 31.5019L18.5304 30.6552L21.9698 32.6844ZM29.0201 30.6491L30.9843 31.4958L28.6821 35.1206L25.5808 32.6783L29.0201 30.6491ZM25.2055 37.6525H22.3482L21.3836 35.7525L23.7768 33.8679L26.17 35.7525L25.2055 37.6525ZM19.2541 37.4296L19.7317 37.0531L20.6621 38.8848L19.8898 52.5781C17.3764 46.6063 15.9215 40.2545 15.5883 33.7987L17.7313 37.1742C17.8086 37.296 17.9112 37.4003 18.0323 37.4803C18.1535 37.5602 18.2905 37.6141 18.4343 37.6382C18.4917 37.6475 18.5498 37.6523 18.608 37.6525C18.8428 37.6526 19.0707 37.574 19.2541 37.4296ZM22.6872 39.6877H24.8664L25.8165 56.5235C25.1838 57.7508 24.5039 58.957 23.7768 60.1422C23.0511 58.9577 22.3712 57.7518 21.7372 56.5245L22.6872 39.6877ZM27.6638 52.5781L26.8926 38.8828L27.823 37.0511L28.3006 37.4276C28.4835 37.5725 28.711 37.6518 28.9457 37.6525C29.0039 37.6523 29.062 37.6475 29.1194 37.6382C29.2632 37.6141 29.4002 37.5602 29.5213 37.4803C29.6425 37.4003 29.7451 37.296 29.8223 37.1742L31.9654 33.7987C31.6322 40.2545 30.1773 46.6063 27.6638 52.5781ZM2.06755 42.5514C2.06754 41.123 2.49057 39.7255 3.28485 38.5301C4.07913 37.3347 5.21021 36.3932 6.53966 35.8207L13.4784 32.8319C13.8081 42.7947 16.7147 52.5098 21.9233 61.0581H10.3378V49.8641H8.2702V61.0581H2.06755V42.5514ZM45.4861 61.0581H39.2835V56.9051C41.0246 58.4483 43.176 59.4718 45.4861 59.8562V61.0581ZM57.8914 47.8288C57.8914 49.8415 57.2851 51.809 56.1492 53.4825C55.0133 55.156 53.3987 56.4603 51.5097 57.2305C49.6208 58.0008 47.5422 58.2023 45.5369 57.8096C43.5315 57.417 41.6895 56.4478 40.2438 55.0246C38.798 53.6014 37.8134 51.7881 37.4145 49.8141C37.0157 47.8401 37.2204 45.794 38.0028 43.9345C38.7853 42.075 40.1103 40.4857 41.8103 39.3675C43.5103 38.2493 45.509 37.6525 47.5537 37.6525C50.2945 37.6554 52.9222 38.7285 54.8602 40.6363C56.7983 42.5441 57.8884 45.1308 57.8914 47.8288ZM42.5068 36.6847C40.86 37.4038 39.3925 38.468 38.2069 39.8032C37.0212 41.1383 36.1459 42.7121 35.642 44.4148C35.1382 46.1174 35.018 47.9077 35.2899 49.6608C35.5617 51.4139 36.219 53.0874 37.2159 54.5645V61.0581H25.6304C30.8391 52.5095 33.7457 42.794 34.0753 32.8309L41.014 35.8207C41.5439 36.0508 42.0448 36.3408 42.5068 36.6847ZM33.0808 20.3527H33.0198C33.0595 20.0149 33.0798 19.6751 33.0808 19.3351V16.2822C33.6292 16.2822 34.155 16.4966 34.5428 16.8783C34.9305 17.26 35.1484 17.7776 35.1484 18.3174C35.1484 18.8572 34.9305 19.3749 34.5428 19.7566C34.155 20.1383 33.6292 20.3527 33.0808 20.3527ZM14.4729 20.3527C13.9245 20.3527 13.3986 20.1383 13.0109 19.7566C12.6231 19.3749 12.4053 18.8572 12.4053 18.3174C12.4053 17.7776 12.6231 17.26 13.0109 16.8783C13.3986 16.4966 13.9245 16.2822 14.4729 16.2822V19.3351C14.4738 19.6751 14.4942 20.0149 14.5338 20.3527H14.4729ZM14.8626 12.3928C14.6072 11.333 14.4764 10.2479 14.4729 9.15871V7.12344C14.4729 6.58365 14.6907 6.06598 15.0784 5.68429C15.4662 5.3026 15.9921 5.08817 16.5404 5.08817C16.8146 5.08817 17.0775 4.98096 17.2714 4.79011C17.4653 4.59927 17.5742 4.34043 17.5742 4.07054C17.5742 3.53075 17.792 3.01307 18.1797 2.63139C18.5675 2.2497 19.0934 2.03527 19.6417 2.03527H26.8782C28.5225 2.03742 30.0989 2.6814 31.2617 3.826C32.4244 4.97059 33.0786 6.52238 33.0808 8.14108V10.9487C33.0781 11.5353 33.0192 12.1203 32.9051 12.696C32.8159 12.5499 32.6903 12.4286 32.5401 12.3439C32.3899 12.2591 32.2202 12.2135 32.047 12.2116H31.2314C26.5741 12.2163 22.0203 10.8591 18.1479 8.31204C18.035 8.23785 17.9083 8.1863 17.7751 8.16031C17.6419 8.13433 17.5048 8.13443 17.3717 8.16061C17.2385 8.18678 17.1119 8.23852 16.9991 8.31287C16.8863 8.38722 16.7894 8.48272 16.7141 8.59392L16.3667 9.10274C15.6863 10.1113 15.1782 11.2226 14.8626 12.3928ZM16.5404 19.3351V15.2645C16.5399 13.6035 17.0049 11.9745 17.8843 10.5569C21.8397 12.9362 26.378 14.2117 31.0133 14.2469V19.3351C31.0133 21.2243 30.2508 23.0362 28.8938 24.3721C27.5367 25.708 25.696 26.4585 23.7768 26.4585C21.8576 26.4585 20.017 25.708 18.6599 24.3721C17.3028 23.0362 16.5404 21.2243 16.5404 19.3351ZM23.7768 28.4938C25.2129 28.4928 26.6288 28.1618 27.9119 27.527V28.9354L23.7768 31.3777L19.6417 28.9354V27.527C20.9248 28.1618 22.3408 28.4928 23.7768 28.4938Z" fill="white"/>
<path d="M38.5527 49.5664L44.7553 55.6722C44.9492 55.863 45.2121 55.9701 45.4862 55.9701C45.7603 55.9701 46.0232 55.863 46.2171 55.6722L56.5548 45.4958C56.7486 45.305 56.8575 45.0462 56.8575 44.7764C56.8575 44.5065 56.7486 44.2477 56.5548 44.0569L53.4535 41.004C53.2597 40.8132 52.9968 40.7061 52.7226 40.7061C52.4485 40.7061 52.1856 40.8132 51.9918 41.004L45.4862 47.408L43.1158 45.0745C42.9219 44.8838 42.659 44.7766 42.3849 44.7766C42.1108 44.7766 41.8479 44.8838 41.654 45.0745L38.5527 48.1274C38.3589 48.3183 38.25 48.5771 38.25 48.8469C38.25 49.1168 38.3589 49.3755 38.5527 49.5664ZM42.3849 47.2329L44.7553 49.5664C44.9492 49.7572 45.2121 49.8643 45.4862 49.8643C45.7603 49.8643 46.0232 49.7572 46.2171 49.5664L52.7226 43.1624L54.3622 44.7764L45.4862 53.5138L40.7453 48.8469L42.3849 47.2329Z" fill="white"/>
</svg>
