<svg width="50" height="68" viewBox="0 0 50 68" fill="none" xmlns="http://www.w3.org/2000/svg">
<path d="M48.7458 21.1636L45.5279 17.3206C45.0861 16.793 44.8173 16.1547 44.7514 15.4748L44.2662 10.5174C44.0141 7.94167 41.932 5.89201 39.3154 5.64391L34.2794 5.16675C33.5886 5.10138 32.9402 4.83681 32.4043 4.40238L28.5003 1.2342C26.472 -0.4114 23.5276 -0.4114 21.4993 1.2342L17.5953 4.40238C17.0599 4.83681 16.4115 5.10138 15.7202 5.16675L10.6842 5.64391C8.06764 5.89201 5.98599 7.94167 5.73343 10.5174L5.2487 15.4748C5.18229 16.1547 4.91353 16.793 4.4722 17.3206L1.25377 21.1636C-0.417925 23.1602 -0.417925 26.0587 1.25377 28.0553L4.4722 31.8983C4.91353 32.4259 5.18229 33.0642 5.2487 33.7442L5.73343 38.7016C5.98546 41.2773 8.06764 43.3264 10.6842 43.575L13.7625 43.8669L6.44875 61.0708C6.25057 61.5392 6.33999 62.0663 6.68248 62.4461C7.02498 62.8255 7.54526 62.9758 8.03992 62.8373L14.3853 61.0739C14.413 61.0662 14.4397 61.078 14.4522 61.1001L17.6298 66.7879C17.8662 67.2115 18.308 67.4668 18.7943 67.4668C18.8173 67.4668 18.8403 67.4663 18.8639 67.4653C19.3779 67.4396 19.8223 67.1338 20.0258 66.6623L27.7474 48.4974C28.0093 48.3492 28.2614 48.1788 28.5009 47.9847L32.4048 44.8171C32.8989 44.4156 33.4903 44.1618 34.1215 44.0733L41.1152 60.5236L36.166 59.1483C35.2248 58.8873 34.2391 59.2934 33.7669 60.136L31.2889 64.5715L28.0057 56.8479C27.7887 56.3378 27.1936 56.098 26.6754 56.3111C26.1578 56.5242 25.9136 57.1104 26.1306 57.62L29.9765 66.6675C30.1778 67.1338 30.6217 67.4396 31.1363 67.4653C31.1598 67.4663 31.1828 67.4674 31.2058 67.4674C31.6921 67.4674 32.1339 67.2115 32.3703 66.7879L35.5474 61.1012C35.5605 61.078 35.5877 61.0672 35.6143 61.0739L41.9586 62.8373C42.4543 62.9753 42.9751 62.8255 43.3171 62.4461C43.6596 62.0663 43.749 61.5397 43.5503 61.0698L36.2371 43.8664L39.3154 43.5745C41.932 43.3264 44.0141 41.2773 44.2662 38.7016L44.7514 33.7437C44.8173 33.0637 45.0861 32.4259 45.5279 31.8983L48.7458 28.0553C50.4181 26.0587 50.4181 23.1602 48.7458 21.1636ZM18.7112 64.5715L16.2327 60.135C15.761 59.2929 14.7743 58.8868 13.8336 59.1483L8.88492 60.5231L15.8781 44.0733C16.5098 44.1618 17.1012 44.4156 17.5953 44.8166L21.4993 47.9847C22.5137 48.8078 23.7566 49.2191 25.0001 49.2191C25.0801 49.2191 25.1595 49.217 25.2396 49.2134L18.7112 64.5715ZM47.1777 26.7829L43.9598 30.6259C43.2591 31.4618 42.8334 32.4738 42.7278 33.5522L42.2431 38.5096C42.0841 40.1341 40.7711 41.4265 39.1209 41.583L34.6972 42.0025C34.6799 42.0036 34.6621 42.0051 34.6449 42.0077L34.0849 42.0607C32.9889 42.1647 31.9609 42.5837 31.1117 43.2729L27.2077 46.4406C25.9287 47.4788 24.0714 47.4788 22.7924 46.4406L18.8885 43.2729C18.0393 42.5837 17.0113 42.1642 15.9153 42.0607L15.3526 42.0072C15.3369 42.0051 15.3218 42.0041 15.3061 42.003L10.8792 41.583C9.22899 41.4265 7.916 40.1341 7.75704 38.5096L7.27231 33.5527C7.16669 32.4738 6.74105 31.4618 6.04037 30.6259L2.82246 26.7829C1.76778 25.5234 1.76778 23.6951 2.82246 22.436L6.04037 18.593C6.74105 17.7571 7.16669 16.7451 7.27231 15.6663L7.75704 10.7089C7.916 9.08438 9.22899 7.79189 10.8792 7.63541L15.9153 7.15825C17.0113 7.05428 18.0393 6.63528 18.8885 5.94606L22.7924 2.7784C23.4319 2.25955 24.2162 1.99961 25.0001 1.99961C25.7839 1.99961 26.5682 2.25903 27.2077 2.7784L31.1117 5.94606C31.9609 6.63528 32.9889 7.05479 34.0849 7.15825L39.1209 7.63541C40.7711 7.79189 42.0841 9.08438 42.2431 10.7089L42.7278 15.6663C42.8334 16.7451 43.2591 17.7571 43.9598 18.593L47.1777 22.436C48.2318 23.6956 48.2318 25.5234 47.1777 26.7829Z" fill="white"/>
<path d="M25.0002 8.98145C24.3215 8.98145 23.6386 9.02365 22.9693 9.10807C22.4129 9.17807 22.0192 9.67942 22.0903 10.2271C22.1614 10.7753 22.6713 11.1624 23.2271 11.0929C23.8106 11.0193 24.4073 10.9822 25.0002 10.9822C32.634 10.9822 38.8444 17.0957 38.8444 24.6103C38.8444 32.1248 32.6335 38.2378 25.0002 38.2378C17.3665 38.2378 11.156 32.1243 11.156 24.6097C11.156 19.2498 14.3666 14.3676 19.3352 12.1712C19.8471 11.9453 20.0761 11.3528 19.846 10.8489C19.616 10.3445 19.0141 10.1195 18.5027 10.346C12.8047 12.8646 9.12354 18.4633 9.12354 24.6097C9.12354 33.2279 16.2459 40.2386 25.0002 40.2386C33.7546 40.2386 40.8769 33.2279 40.8769 24.6097C40.8769 15.9921 33.7546 8.98145 25.0002 8.98145Z" fill="white"/>
<path d="M14.9067 23.4516C13.6952 24.6443 13.6952 26.5853 14.9067 27.7779L19.3456 32.148C19.9328 32.7256 20.713 33.0437 21.5433 33.0437C22.3731 33.0437 23.1538 32.7256 23.741 32.148L33.4308 22.609C34.6424 21.4159 34.6424 19.4753 33.4308 18.2822C32.2193 17.0895 30.2474 17.0895 29.0354 18.2822L21.5433 25.6578L19.3017 23.4516C18.0901 22.259 16.1183 22.259 14.9067 23.4516ZM21.5433 28.0734C21.8126 28.0734 22.0709 27.9679 22.2618 27.78L30.4728 19.6972C30.8922 19.2844 31.574 19.2849 31.9934 19.6972C32.4128 20.11 32.4128 20.7817 31.9934 21.194L22.3036 30.733C22.1007 30.9327 21.8304 31.0429 21.5433 31.0429C21.2557 31.0429 20.9859 30.9327 20.783 30.733L16.3436 26.3635C15.9248 25.9507 15.9248 25.2789 16.3436 24.8666C16.5533 24.6602 16.8289 24.5568 17.1044 24.5568C17.3795 24.5568 17.6551 24.6602 17.8642 24.8661L20.8243 27.78C21.0152 27.9679 21.2735 28.0734 21.5433 28.0734Z" fill="white"/>
</svg>
