<svg width="18" height="18" viewBox="0 0 18 18" fill="none" xmlns="http://www.w3.org/2000/svg">
<path fill-rule="evenodd" clip-rule="evenodd" d="M10 0.988095C10 0.44239 9.5523 0 9 0C8.4477 0 8 0.44239 8 0.988095V7.90476H1C0.44772 7.90476 0 8.34713 0 8.89286C0 9.43858 0.44772 9.88095 1 9.88095H8V16.7976C8 17.3433 8.4477 17.7857 9 17.7857C9.5523 17.7857 10 17.3433 10 16.7976V9.88095H17C17.5523 9.88095 18 9.43858 18 8.89286C18 8.34713 17.5523 7.90476 17 7.90476H10V0.988095Z" fill="#033A5B"/>
</svg>
